<?xml version="1.0" standalone="no"?>
<!DOCTYPE svg PUBLIC "-//W3C//DTD SVG 20010904//EN"
 "http://www.w3.org/TR/2001/REC-SVG-20010904/DTD/svg10.dtd">
<svg version="1.0" xmlns="http://www.w3.org/2000/svg"
 width="700.000000pt" height="700.000000pt" viewBox="0 0 700.000000 700.000000"
 preserveAspectRatio="xMidYMid meet">
<metadata>
Created by potrace 1.11, written by Peter Selinger 2001-2013
</metadata>
<g transform="translate(0.000000,700.000000) scale(0.100000,-0.100000)"
fill="#000000" stroke="none">
<path d="M3298 6996 c-1 -2 -41 -6 -88 -10 -92 -6 -246 -24 -270 -31 -8 -2
-31 -7 -50 -10 -444 -72 -932 -270 -1340 -542 -109 -73 -113 -82 -8 -20 186
110 433 222 653 297 119 40 291 90 330 96 11 1 54 10 95 19 90 19 256 43 365
53 158 14 570 6 658 -12 12 -3 46 -8 76 -11 30 -3 64 -8 75 -10 12 -3 32 -7
46 -9 208 -37 466 -115 645 -196 516 -232 884 -521 1208 -950 13 -17 68 -100
112 -170 40 -64 157 -293 187 -370 120 -301 190 -586 215 -880 18 -218 4 -541
-32 -720 -2 -14 -10 -50 -16 -80 -39 -197 -140 -477 -243 -674 -72 -137 -103
-188 -236 -381 -22 -32 -81 -105 -113 -140 -15 -16 -51 -57 -80 -90 -113 -131
-337 -326 -517 -452 -276 -192 -559 -325 -925 -436 -60 -18 -266 -65 -315 -71
-77 -10 -136 -18 -154 -22 -24 -4 -185 -16 -259 -18 -31 -2 -62 -7 -67 -12 -6
-6 -19 -41 -29 -78 -11 -38 -25 -72 -33 -77 -7 -5 -34 -9 -61 -9 -46 0 -48 -1
-82 -54 -40 -63 -74 -144 -76 -183 -1 -16 3 -46 9 -68 13 -47 8 -91 -14 -112
-9 -10 -46 -19 -95 -24 -66 -6 -100 -17 -188 -59 -116 -55 -189 -67 -233 -38
-13 8 -42 20 -65 26 -47 14 -65 37 -56 70 5 19 13 22 55 22 65 0 100 17 195
98 181 154 226 209 269 328 l24 64 -25 16 c-31 20 -39 45 -24 78 7 14 10 28 8
30 -3 3 -27 8 -54 11 -41 6 -236 45 -295 60 -89 22 -241 71 -295 95 -11 5 -49
21 -85 36 -36 14 -127 58 -202 96 -171 87 -183 117 -33 84 11 -2 52 -7 90 -11
39 -4 79 -9 90 -12 50 -10 376 -13 370 -3 -13 21 -13 49 -1 59 7 6 30 9 52 7
89 -7 186 33 276 116 98 90 130 153 162 320 13 66 13 68 -9 82 -28 19 -35 52
-19 87 18 36 77 260 70 266 -5 6 -134 -56 -142 -68 -3 -5 2 -33 10 -64 13 -51
13 -57 -4 -77 -15 -19 -22 -21 -46 -13 -25 9 -32 21 -53 88 -15 47 -30 77 -39
77 -20 0 -92 78 -92 100 0 10 -7 20 -15 24 -34 13 -5 96 33 96 16 0 16 2 -19
86 -18 43 -37 74 -45 74 -8 0 -17 7 -20 15 -4 8 -11 15 -16 15 -15 0 -75 66
-83 90 -3 11 -10 20 -15 20 -4 0 -10 9 -13 21 -4 16 2 25 24 37 21 13 27 22
23 36 -17 52 -211 357 -305 478 -443 571 -1007 1039 -1639 1359 -85 44 -161
79 -168 79 -40 0 -193 -449 -253 -745 -7 -33 -14 -64 -15 -70 -8 -38 -35 -237
-41 -306 -15 -167 -8 -612 12 -730 2 -13 6 -46 9 -74 46 -404 230 -930 456
-1300 83 -136 79 -130 134 -209 182 -263 403 -502 656 -710 110 -89 322 -246
335 -246 3 0 35 -19 72 -43 245 -157 741 -364 962 -402 19 -3 37 -8 41 -10 7
-4 13 -6 135 -29 110 -21 133 -25 185 -32 25 -3 56 -7 70 -10 157 -25 682 -25
842 1 13 2 46 6 73 10 28 3 57 8 65 10 8 2 31 6 50 9 217 33 501 117 755 224
116 48 362 171 407 203 14 11 29 19 32 19 11 0 260 172 346 239 554 432 966
1022 1184 1696 30 95 68 233 82 300 17 81 54 301 59 350 4 33 9 71 11 85 9 46
11 524 4 605 -12 128 -21 202 -25 227 -3 13 -8 43 -11 68 -3 25 -9 61 -14 80
-5 19 -12 51 -15 70 -11 66 -64 265 -95 360 -227 689 -655 1288 -1225 1716
-73 55 -182 131 -231 161 -164 101 -344 197 -464 248 -36 15 -83 35 -105 45
-99 43 -411 140 -531 165 -206 42 -243 48 -359 60 -38 4 -83 9 -100 12 -33 5
-511 13 -517 9z"/>
<path d="M2520 6564 c-63 -7 -140 -18 -170 -23 -30 -6 -71 -13 -90 -16 -102
-17 -325 -82 -465 -137 -572 -225 -992 -577 -1293 -1083 -56 -95 -152 -271
-152 -280 0 -2 73 -41 162 -88 90 -46 204 -108 253 -137 50 -29 99 -58 110
-64 89 -50 486 -324 515 -356 3 -3 39 -32 80 -65 214 -170 455 -409 651 -645
105 -128 203 -266 294 -415 49 -82 64 -99 73 -88 18 19 24 16 53 -26 23 -32
37 -41 95 -57 56 -16 76 -28 118 -70 55 -54 108 -83 196 -104 101 -24 117 -22
162 26 73 78 181 98 274 51 28 -14 56 -32 63 -41 34 -41 233 60 360 183 62 60
64 63 50 88 -20 37 -52 55 -88 50 -41 -7 -112 10 -127 31 -8 9 -14 30 -14 45
0 16 -7 30 -16 34 -10 4 -14 13 -10 26 3 12 0 27 -6 34 -7 9 -7 17 0 26 8 10
5 20 -13 42 -14 15 -25 31 -25 35 0 4 20 27 44 51 44 45 44 45 35 93 -5 27 -6
52 -3 57 3 5 -2 9 -10 9 -8 0 -18 -4 -21 -10 -3 -5 -11 -10 -17 -10 -7 0 -7 4
1 13 6 8 14 38 17 68 3 30 12 64 20 76 22 35 17 48 -11 29 -27 -18 -31 -10
-14 28 11 23 62 56 89 56 6 0 3 11 -9 26 -30 38 -28 59 3 39 32 -22 116 -30
168 -17 93 23 115 27 183 26 51 0 81 -6 111 -22 l42 -21 -6 22 c-5 20 -2 19
30 -9 20 -18 56 -46 81 -63 25 -17 55 -48 68 -68 12 -21 23 -39 24 -41 1 -1
12 -5 25 -7 41 -8 51 -23 35 -55 -9 -17 -14 -55 -14 -97 1 -80 -6 -112 -37
-173 -26 -52 -72 -102 -129 -139 -68 -44 -73 -64 -13 -48 37 9 43 8 60 -12 10
-13 18 -32 18 -42 0 -10 22 -43 49 -73 27 -30 61 -74 75 -98 50 -85 96 -236
111 -363 2 -22 7 -62 10 -89 3 -27 6 -81 6 -120 l1 -71 35 40 c140 160 270
368 361 575 62 144 137 385 157 510 3 19 10 58 15 85 10 54 19 130 26 210 6
76 6 364 -1 418 -3 26 -7 67 -10 92 -12 112 -17 144 -36 234 -69 339 -197 651
-373 915 -303 453 -721 765 -1224 915 -109 32 -261 66 -337 75 -27 4 -81 10
-119 15 -108 12 -428 10 -556 -5z"/>
<path d="M2678 2782 c-15 -3 -15 -6 0 -48 16 -44 26 -53 37 -34 10 17 45 11
77 -11 40 -29 131 -56 168 -51 29 4 58 48 47 74 -4 11 -81 41 -166 64 -28 7
-138 12 -163 6z"/>
<path d="M3790 2656 c-36 -13 -69 -23 -75 -24 -5 0 -11 -5 -13 -10 -3 -11 192
-275 226 -305 19 -17 20 -17 26 19 18 92 -3 228 -47 307 -24 43 -30 43 -117
13z"/>
<path d="M3292 2320 c-5 -14 -15 -68 -22 -120 -7 -52 -14 -104 -15 -115 -2
-11 -4 -23 -4 -27 -1 -10 -61 -28 -92 -28 -25 0 -29 -6 -59 -87 -17 -49 -35
-106 -39 -128 -7 -38 -5 -95 4 -104 3 -2 58 32 122 76 134 91 251 163 264 163
21 0 18 29 -9 85 -16 33 -48 108 -71 167 -23 58 -49 114 -56 125 -13 17 -14
17 -23 -7z"/>
</g>
</svg>
