<svg xmlns="http://www.w3.org/2000/svg" viewBox="0 0 181.52 181.49"><defs><style>.cls-1{fill:#fff;}</style></defs><g id="Layer_2" data-name="Layer 2"><g id="logo"><path class="cls-1" d="M88.59,127.27c.41,1,.88,2,1.39,2.91a.39.39,0,0,1-.16.52A77.77,77.77,0,0,0,80,137.08a.39.39,0,0,1-.62-.23c-.48-2.17.58-4.37,1.31-6.51.16-.47.35-.93.55-1.37h.23a6.78,6.78,0,0,0,1.19-.14c.72-.15,1.66-.23,1.78-1.17a3.09,3.09,0,0,0,0-.43,60.65,60.65,0,0,1,.9-6,.39.39,0,0,1,.74-.08c.58,1.34,1.12,2.62,1.31,3.16h0C87.81,125.28,88.18,126.28,88.59,127.27Z"/><path class="cls-1" d="M56.49,88.16h0a96,96,0,0,1,7.83,11.72v-.1a.84.84,0,0,1,.54-.69.54.54,0,0,1,.59.31,9.61,9.61,0,0,0,.53.87,2.1,2.1,0,0,0,.92.85c.4.14.92.27,1.32.4l1.08.32a3.66,3.66,0,0,1,1.83,1.06c.25.34.51.67.78,1l0,.06a7.26,7.26,0,0,0,1.21.84,13.83,13.83,0,0,0,6.6,1.65.38.38,0,0,0,.33-.2,5.84,5.84,0,0,1,5.37-2.89,6.08,6.08,0,0,1,4.21,2,.39.39,0,0,0,.39.12,18,18,0,0,0,9-5.33c.32-.33.75-.78,1.25-1.24a.4.4,0,0,0,.05-.53l-1-1.3-1-.38a4.79,4.79,0,0,1-3.17-.23,1.78,1.78,0,0,1-1.05-1.23v-.93c0-.29-.5-.39-.65-.6a.61.61,0,0,1,0-.64s.22-.3.26-.28l-.09-.07c-.26-.2-.54-.38-.44-.76s.56-.42.32-.81a1.93,1.93,0,0,0-.35-.35,1.72,1.72,0,0,1-.75-1c0-.63,1.06-1.34,1.64-1.9a1.42,1.42,0,0,0,.52-1.23,16.91,16.91,0,0,1-.3-1.73V84a1.88,1.88,0,0,1-1.42.81,3.22,3.22,0,0,0,.73-2.61,3.1,3.1,0,0,1,1.07-2.31c-1-.51-1.53.6-1.56.58a2.69,2.69,0,0,1,2.75-2.65l.32,0a2.8,2.8,0,0,1-1.32-2.28,2.78,2.78,0,0,0,1.23.91,6.82,6.82,0,0,0,1.73.35,6.93,6.93,0,0,0,1.76-.19c.79-.15,1.57-.32,2.36-.48a7.49,7.49,0,0,1,6.86,1,1.69,1.69,0,0,1-.33-1.45c.17.48.53.67.92,1.12a32.06,32.06,0,0,0,2.86,2.08l.07.06A5.43,5.43,0,0,1,113.69,81a.39.39,0,0,0,.41.27,1.91,1.91,0,0,1,1.48.63.4.4,0,0,1-.18.62c-.57.24-.44,1.82-.43,2.25a12.52,12.52,0,0,1-.21,3.12,8.88,8.88,0,0,1-4.32,5.54,2.74,2.74,0,0,0-1.23,1.08.62.62,0,0,0,0,.38,3,3,0,0,1,.7-.27c.54-.15,1.94-.48,2.13.33a9.28,9.28,0,0,0,.47,1.66.54.54,0,0,0,.07.13c.18.2.58.53,1,1a9.52,9.52,0,0,1,.72.83,15.34,15.34,0,0,1,1.6,2.47,23.42,23.42,0,0,1,1.54,4,33.58,33.58,0,0,1,1.11,5.63c.17,1.45.28,2.92.31,4.39v2a59.09,59.09,0,0,0,9-13.16,65.34,65.34,0,0,0,6.59-28.47C134.68,37.65,105.75,4,59.76,12.09A72.68,72.68,0,0,0,36,21a62.55,62.55,0,0,0-19.93,18.2A91.53,91.53,0,0,0,9.17,51a.39.39,0,0,0,.18.53A145,145,0,0,1,32.69,65.4,119.16,119.16,0,0,1,56.49,88.16Z"/><path class="cls-1" d="M70,109.29v.06H69c.36.87.71,1.74,1,2.62a1,1,0,0,1,.39-.57,1.82,1.82,0,0,1,2,.35,7.26,7.26,0,0,0,4.94,1.34.41.41,0,0,0,.34-.3c.14-.51.27-1,.41-1.53a.39.39,0,0,0-.27-.47c-.73-.21-1.46-.44-2.19-.68a16.71,16.71,0,0,0-3-.81h0A14.77,14.77,0,0,0,70,109.29Z"/><path class="cls-1" d="M90.74,181.49h0a90.74,90.74,0,1,0-53-164.32s.16.12.56-.14A86.43,86.43,0,0,1,51.59,10.3c1.38-.57,2.78-1.11,4.2-1.61a84.82,84.82,0,0,1,43-3.83,78.4,78.4,0,0,1,16.38,4.75c15.39,6.34,29,17.56,37,32.29C160.89,58,163.76,77.78,159,95.57A72.08,72.08,0,0,1,143.81,124a80,80,0,0,1-26.44,20,78.73,78.73,0,0,1-32.84,7.55.39.39,0,0,0-.36.26,26.72,26.72,0,0,0-.83,2.77c-.09.28-.12.58-.21.86-.29.77-1.15.65-1.83.64-.26,0-.68,0-1-.08a.4.4,0,0,0-.34.14A15.11,15.11,0,0,0,78,159.06v.11c-.86,1.88-1.39,3-.76,4.58a3.73,3.73,0,0,1,.21,1.75,2.21,2.21,0,0,1-.62,1.5.31.31,0,0,1-.11.09,2.51,2.51,0,0,1-1.63.33,8.72,8.72,0,0,0-3.46.61l-.05,0A39.16,39.16,0,0,1,67.48,170a5.13,5.13,0,0,1-4.27-.06,5.62,5.62,0,0,0-.65-.43,2.16,2.16,0,0,0-.67-.14,1.88,1.88,0,0,1-1.61-1,1.37,1.37,0,0,1,.13-1.12c.21-.37.58-.38,1-.33a6,6,0,0,0,.84.1,4,4,0,0,0,1.47-.32,8.94,8.94,0,0,0,2.46-1.72c.67-.61,1.55-1.36,2.32-2s1.24-1,1.61-1.39a15.65,15.65,0,0,0,3-3.83l0,0a24.74,24.74,0,0,0,1.31-3.45l-.45-.29c-.54-.41-1.23-.86-1-1.65a14.47,14.47,0,0,1,.59-1.41,71.16,71.16,0,0,1-27.86-9.55.39.39,0,0,1,.3-.71A72.07,72.07,0,0,0,62.81,142a1.5,1.5,0,0,1-.32-.44,1.54,1.54,0,0,1-.14-.73.92.92,0,0,1,.31-.7.38.38,0,0,1,.15-.09.77.77,0,0,1,.37,0,8.62,8.62,0,0,0,1.76.09,10.31,10.31,0,0,0,1.24-.19l.64-.16,1-.32a5.6,5.6,0,0,0,.94-.49,12,12,0,0,0,2.13-1.62A15.84,15.84,0,0,0,73.85,134a1.7,1.7,0,0,1,.16-.35,34.79,34.79,0,0,0,1.5-5.42l.21-1.09-.11-.06c-.7-.45-1.5-1.07-1.23-2.07.21-.64.32-.67.55-1.3s.55-1.87.79-2.83l.87-3.38a4.11,4.11,0,0,0-1.24.31c-.89.39-1.68.93-2.54,1.38a.38.38,0,0,0-.2.44c.21.74.41,1.49.6,2.24a1.24,1.24,0,0,1-.15,1,1.31,1.31,0,0,1-.83.6h0a1.68,1.68,0,0,1-1.61-1.27c-.24-1-.51-1.92-.79-2.87a2.32,2.32,0,0,1-.39-.44,1.41,1.41,0,0,1-1.53-1.12,1.63,1.63,0,0,1-1-1.69c-.37-.06-.6-.43-.74-.8-.4-1,.49-1.73,1.23-2a1.18,1.18,0,0,1,.37-.09c-.46-1.23-1-2.45-1.48-3.66a.45.45,0,0,0-.25-.22c-.86-.29-1-.81-.93-.78a1.28,1.28,0,0,1-1.18-1.11c-1.23-.1-1.23-1.65-1.23-1.65a1.07,1.07,0,0,1-.81-1.16c0-.3.34-.56.76-.77a6.07,6.07,0,0,1,.8-.32A93.24,93.24,0,0,0,54.5,89.75,122,122,0,0,0,31.43,67.14,122.8,122.8,0,0,0,8.48,53.35a.4.4,0,0,0-.53.2A90.11,90.11,0,0,0,0,89.76v1A90.74,90.74,0,0,0,90.74,181.49Z"/><path class="cls-1" d="M100.69,111.87a43,43,0,0,1-4.47,1.41.38.38,0,0,0-.22.6c1.7,2.31,3.47,4.61,5.2,6.85l0,0,1.23,1.35a29.82,29.82,0,0,0,.29-3.39,11.75,11.75,0,0,0-2-6.78v-.06Z"/></g></g></svg>