<svg xmlns="http://www.w3.org/2000/svg" viewBox="0 0 147.52 47.67"><defs><style>.cls-1{fill:#fff;}.cls-2{isolation:isolate;}</style></defs><g id="Layer_2" data-name="Layer 2"><g id="Layer_1-2" data-name="Layer 1"><path class="cls-1" d="M26.82,31.13a3.63,3.63,0,0,0-.3-1.29h0a1.87,1.87,0,0,0-.39-.53,5.84,5.84,0,0,1-1.34.44,14.17,14.17,0,0,0,1.91,2.52s0,0,0-.14h0v0a5.3,5.3,0,0,0,.07-.72s0-.08,0-.13v-.1Z"/><path class="cls-1" d="M20.86,36.24a16.19,16.19,0,0,1,2.89-1.86A12.1,12.1,0,0,1,23,32.71a6.29,6.29,0,0,0-.55-1.14s0,0,0,0c-.08.42-.29,1.59-.29,1.89a.41.41,0,0,1,0,.11c0,.24-.26.26-.45.3s-.27,0-.36,0h0c-.05.12-.1.23-.14.35a3.68,3.68,0,0,0-.35,1.63h0A1.19,1.19,0,0,0,20.86,36.24Z"/><path class="cls-1" d="M23.55.46A23.47,23.47,0,0,0,12.15,3.4a.54.54,0,0,0,.55,0l.68-.3,1.09-.41a22.06,22.06,0,0,1,11.16-1A20.89,20.89,0,0,1,29.88,3a19.13,19.13,0,0,1,9.6,8.38,19.35,19.35,0,0,1,1.79,13.93,18.84,18.84,0,0,1-4,7.37,20.88,20.88,0,0,1-6.87,5.2,20.46,20.46,0,0,1-7.9,1.94,6.65,6.65,0,0,0-.23.76c0,.09,0,.17-.07.25S22,41,21.87,41a4.68,4.68,0,0,1-.64,0,4.16,4.16,0,0,0-.43.66v0c-.23.49-.36.78-.2,1.19a1,1,0,0,1,.05.45.54.54,0,0,1-.17.4.62.62,0,0,1-.44.1,2.2,2.2,0,0,0-.91.17c-.35.18-.7.35-1.07.5a1.31,1.31,0,0,1-1.11,0l-.17-.11-.17,0a.47.47,0,0,1-.42-.26.36.36,0,0,1,0-.29c.06-.1.16-.1.26-.09a.76.76,0,0,0,.21,0,1,1,0,0,0,.39-.08,2.14,2.14,0,0,0,.63-.45c.17-.16.4-.35.6-.52l.42-.36a4.21,4.21,0,0,0,.78-1,4.85,4.85,0,0,0,.29-.75c-.28-.14-.62-.35-.53-.62a1.43,1.43,0,0,1,.08-.22,17.44,17.44,0,0,1-7.95-2.81,18.92,18.92,0,0,0,5,.47.43.43,0,0,1,0-.62s0,0,0,0,.1,0,.29.05a1.92,1.92,0,0,0,1-.1,2.43,2.43,0,0,0,.83-.5.14.14,0,0,1,.09-.05,3.67,3.67,0,0,0,.7-.82.73.73,0,0,0,.05-.09,10.7,10.7,0,0,0,.39-1.4,2.43,2.43,0,0,1,0-.29h0c-.18-.12-.39-.28-.31-.54s.09-.17.15-.34.14-.48.2-.73l.22-.88a2.57,2.57,0,0,0-.48.11,5,5,0,0,0-.51.27c.05.17.1.33.14.5a.58.58,0,0,1-.06.45.61.61,0,0,1-.37.26l-.14,0a.6.6,0,0,1-.57-.45l-.22-.79a.4.4,0,0,1-.3-.22.43.43,0,0,1-.27-.45c-.1,0-.15-.11-.19-.21a.33.33,0,0,1,.1-.37h0l.07-.05.07,0,.08-.05c-.11-.29-.22-.57-.34-.86l-.13,0h0l-.06,0h0c-.13-.08-.16-.17-.15-.16a.36.36,0,0,1-.34-.32C16,28.48,16,28,16,28a.33.33,0,0,1-.21-.41.75.75,0,0,1,.07-.12.81.81,0,0,1,.33-.14h.05A24.84,24.84,0,0,0,14,23.9,31.83,31.83,0,0,0,8,18.07a32.15,32.15,0,0,0-6-3.59,19.42,19.42,0,0,0-.9,2.29,23.41,23.41,0,0,0-1.14,7V24A23.55,23.55,0,0,0,23.55,47.57h0A23.55,23.55,0,0,0,47.1,24h0A23.55,23.55,0,0,0,23.55.46Z"/><path class="cls-1" d="M14.89,23.18A25.69,25.69,0,0,1,17,26.27v0a.41.41,0,0,1,.14-.31.19.19,0,0,1,.18,0,.43.43,0,0,1,.19.25,1.22,1.22,0,0,1,.07.17,1.45,1.45,0,0,0,.2.34.51.51,0,0,0,.26.14l.19.06a.94.94,0,0,1,.48.28,2.39,2.39,0,0,0,.21.26,1.66,1.66,0,0,0,.3.22,3.46,3.46,0,0,0,1.77.43,1.56,1.56,0,0,1,2.56-.24,4.63,4.63,0,0,0,2.4-1.4l.36-.35-.36-.48h-.57a1.29,1.29,0,0,1-.51-.1.48.48,0,0,1-.28-.34,2.09,2.09,0,0,0,0-.25c0-.08-.13-.11-.17-.16a.19.19,0,0,1,0-.18l.07-.07,0,0c-.07-.05-.15-.1-.12-.2s.15-.11.09-.21a.47.47,0,0,0-.1-.1.52.52,0,0,1-.2-.26c0-.17.29-.36.44-.51a.38.38,0,0,0,.14-.33,3.4,3.4,0,0,1-.06-.46v-.25c-.12.2-.51.16-.51.16.24-.29.33-.36.33-.64a.85.85,0,0,1,.29-.62c-.27-.13-.59.15-.6.14,0-.81,1-.67,1-.68a1.33,1.33,0,0,1-.44-.84,1.67,1.67,0,0,0,.5.37,1.85,1.85,0,0,0,.66.13,4.61,4.61,0,0,0,.82-.11,2,2,0,0,1,1.84.25.54.54,0,0,1,0-.48,1.67,1.67,0,0,0,.25.4,7.61,7.61,0,0,0,.72.55,1.46,1.46,0,0,1,.4.66.67.67,0,0,1,.69.42c-.31-.21-.38.38-.38.52a3.39,3.39,0,0,1,0,.84A2.41,2.41,0,0,1,29,24.73a.76.76,0,0,0-.35.29v.06l.14,0c.14,0,.5-.13.55.09a2.54,2.54,0,0,0,.13.45,3,3,0,0,1,.26.26c.07.07.13.15.19.22a3.73,3.73,0,0,1,.41.65,5.36,5.36,0,0,1,.4,1A8,8,0,0,1,31,29.19a10.92,10.92,0,0,1,.08,1.14v.26a15.58,15.58,0,0,0,2.13-3.15A16.94,16.94,0,0,0,34.89,20a16.41,16.41,0,0,0-5-12.21A16.17,16.17,0,0,0,19.69,3.67,17.49,17.49,0,0,0,8.46,6.47a18.18,18.18,0,0,0-4.28,4.16,23.7,23.7,0,0,0-1.71,2.92,38.45,38.45,0,0,1,6.21,3.68A30.73,30.73,0,0,1,14.89,23.18Z"/><path class="cls-1" d="M18.44,28.77l-.21.07c.09.22.17.43.25.65l.13,0a.62.62,0,0,1,.41.16c.07.07.11.14.15.18.2.16.92,0,1.19,0v0c0-.12.16-.52.19-.63l-1.38-.39A1.24,1.24,0,0,0,18.44,28.77Z"/><g class="cls-2"><path class="cls-1" d="M81.74,37.51V16.81H95.93v3.51h-10v4.9h8.64v3.5H85.92v8.79Z"/><path class="cls-1" d="M110.59,37.51V28.8l-7.58-12h4.9L112.78,25l4.77-8.19h4.82l-7.62,12v8.68Z"/><path class="cls-1" d="M143.47,29.9l4.05,1.29a9.11,9.11,0,0,1-3.1,5,9.74,9.74,0,0,1-12.28-1.17,10.78,10.78,0,0,1-2.65-7.7c0-3.45.89-6.12,2.67-8a9.17,9.17,0,0,1,7-2.86,8.58,8.58,0,0,1,6.17,2.25,8,8,0,0,1,2.12,3.81l-4.13,1A4.38,4.38,0,0,0,141.79,21,4.33,4.33,0,0,0,139,20a4.68,4.68,0,0,0-3.73,1.66q-1.44,1.65-1.44,5.35c0,2.61.48,4.48,1.42,5.59a4.57,4.57,0,0,0,3.67,1.66,4.15,4.15,0,0,0,2.86-1.06A6.12,6.12,0,0,0,143.47,29.9Z"/></g><path class="cls-1" d="M64,47.67a.69.69,0,0,1-.69-.69V.69a.69.69,0,1,1,1.38,0V47A.69.69,0,0,1,64,47.67Z"/></g></g></svg>