<?xml version="1.0" encoding="utf-8"?>
<!-- Generator: Adobe Illustrator 24.1.0, SVG Export Plug-In . SVG Version: 6.00 Build 0)  -->
<svg version="1.1" id="Layer_1" xmlns="http://www.w3.org/2000/svg" xmlns:xlink="http://www.w3.org/1999/xlink" x="0px" y="0px"
	 viewBox="0 0 495.9 152.7" style="enable-background:new 0 0 495.9 152.7;" xml:space="preserve">
<style type="text/css">
	.st0{fill:#069DE0;}
	.st1{fill:#6E55DC;}
	.st2{fill:#05AC3F;}
	.st3{fill:#EF1541;}
	.st4{fill:#FF7112;}
	.st5{fill:#FCCC12;}
</style>
<path d="M31.9,47.2C14.3,47.2,0,61.5,0,79.1v73.7h15.1v-40.9l5.5,5.9l22.2-8.7c12.7-4.9,20.9-16.3,20.9-29.9
	C63.7,61.5,49.4,47.2,31.9,47.2L31.9,47.2z M37.5,95.6l-22.4,8.8V79.1c0-10.1,7.6-17.5,16.7-17.5s16.8,7.4,16.8,17.5
	C48.6,85.5,45.5,92.5,37.5,95.6"/>
<path d="M298.5,47.2c-17.6,0-31.9,14.2-31.9,31.8s14.2,31.9,31.8,31.9c17.6,0,31.9-14.2,31.9-31.8c0-8.5-3.3-16.6-9.3-22.6
	C315,50.6,306.9,47.2,298.5,47.2L298.5,47.2z M298.5,96.6c-9.7,0-16.8-7.7-16.8-17.5s7.3-17.5,16.8-17.5c9.7,0,16.8,7.7,16.8,17.5
	S308.2,96.6,298.5,96.6z"/>
<path d="M367.5,61.6c6.2-0.1,11.9,3.4,14.7,8.9l11.8-9.1c-9.8-14.7-29.5-18.6-44.2-8.9s-18.6,29.5-8.9,44.2s29.5,18.6,44.2,8.9
	c3.5-2.3,6.5-5.4,8.9-8.9l-11.8-9.1c-2.8,5.5-8.5,9-14.7,8.9c-9.7,0-16.8-7.7-16.8-17.5S358,61.6,367.5,61.6z"/>
<path d="M238.5,61.6c6.2-0.1,11.9,3.4,14.7,8.9l11.8-9.1c-9.7-14.6-29.5-18.6-44.2-8.9s-18.6,29.5-8.9,44.2
	c9.7,14.6,29.5,18.6,44.2,8.9c3.5-2.3,6.5-5.4,8.9-8.9l-11.8-9c-2.8,5.5-8.5,9-14.7,8.9c-9.7,0-16.8-7.7-16.8-17.5
	S229.1,61.6,238.5,61.6z"/>
<path d="M185.7,54.8c-5.1-5.3-11.9-7.6-19.1-7.6c-14.8,0-29.8,13.4-29.8,31.9s15,31.8,29.8,31.8c7.1,0,13.9-2.3,19.1-7.6v5.8h15.1
	v-60h-15.1V54.8z M169,96.6c-9.7,0-17-7.7-17-17.5s7.5-17.5,17-17.5c9.7,0,16.8,7.7,16.8,17.5S178.6,96.6,169,96.6z"/>
<path d="M436.1,76.9h-6.8l26.3-27.8H436l-21.1,22.8V16.4h-15.1v92.7h15.1V92l8.4-8.8l17.8,25.8h18.3L436.1,76.9z"/>
<path d="M100.6,47.2C83,47.5,68.9,62.1,69.2,79.6c0.3,17.2,14.1,31,31.3,31.3c10.4,0,20.3-5.1,26-12.9l-12.1-8.4
	c-1.5,2.4-6.1,6.9-13.9,6.9c-6.9,0.1-13.1-4.2-15.5-10.6h46c0.5-2.3,0.7-4.6,0.7-6.9C131.8,61.5,118.2,47.2,100.6,47.2L100.6,47.2z
	 M85.1,72.2c2.5-6.4,8.6-10.6,15.5-10.6c6.7-0.1,12.8,4.2,14.9,10.5L85.1,72.2z"/>
<g>
	<path class="st0" d="M486.7,100.1c-1.8,0-3.6,0.5-5.1,1.5c-1.5,1-2.7,2.4-3.4,4.1c-0.7,1.7-0.9,3.5-0.5,5.3
		c0.4,1.8,1.2,3.4,2.5,4.7c1.3,1.3,2.9,2.1,4.7,2.5c1.8,0.4,3.6,0.2,5.3-0.5c1.7-0.7,3.1-1.9,4.1-3.4c1-1.5,1.5-3.3,1.5-5.1
		c0-2.4-1-4.7-2.7-6.5C491.5,101,489.2,100.1,486.7,100.1"/>
	<path class="st1" d="M486.7,75c-1.8,0-3.6,0.5-5.1,1.5c-1.5,1-2.7,2.4-3.4,4.1c-0.7,1.7-0.9,3.5-0.5,5.3c0.4,1.8,1.2,3.4,2.5,4.7
		c1.3,1.3,2.9,2.1,4.7,2.5c1.8,0.4,3.6,0.2,5.3-0.5c1.7-0.7,3.1-1.9,4.1-3.4c1-1.5,1.5-3.3,1.5-5.1c0-2.4-1-4.7-2.7-6.5
		C491.5,76,489.2,75,486.7,75"/>
	<path class="st2" d="M486.7,125.1c-1.8,0-3.6,0.5-5.1,1.5c-1.5,1-2.7,2.4-3.4,4.1c-0.7,1.7-0.9,3.5-0.5,5.3
		c0.4,1.8,1.2,3.4,2.5,4.7c1.3,1.3,2.9,2.1,4.7,2.5c1.8,0.4,3.6,0.2,5.3-0.5c1.7-0.7,3.1-1.9,4.1-3.4c1-1.5,1.5-3.3,1.5-5.1
		c0-1.2-0.2-2.4-0.7-3.5c-0.5-1.1-1.1-2.1-2-3c-0.8-0.8-1.9-1.5-3-2C489.1,125.3,487.9,125.1,486.7,125.1"/>
	<path class="st3" d="M486.7,50c-1.8,0-3.6,0.5-5.1,1.5c-1.5,1-2.7,2.4-3.4,4.1c-0.7,1.7-0.9,3.5-0.5,5.3c0.4,1.8,1.2,3.4,2.5,4.7
		c1.3,1.3,2.9,2.1,4.7,2.5c1.8,0.4,3.6,0.2,5.3-0.5c1.7-0.7,3.1-1.9,4.1-3.4c1-1.5,1.5-3.3,1.5-5.1c0-1.2-0.2-2.4-0.7-3.5
		c-0.5-1.1-1.1-2.1-2-3c-0.8-0.8-1.9-1.5-3-2S487.9,50,486.7,50"/>
	<path class="st4" d="M486.7,25c-1.8,0-3.6,0.5-5.1,1.5c-1.5,1-2.7,2.4-3.4,4.1c-0.7,1.7-0.9,3.5-0.5,5.3c0.4,1.8,1.2,3.4,2.5,4.7
		c1.3,1.3,2.9,2.1,4.7,2.5c1.8,0.4,3.6,0.2,5.3-0.5c1.7-0.7,3.1-1.9,4.1-3.4c1-1.5,1.5-3.3,1.5-5.1c0-2.4-1-4.7-2.7-6.5
		C491.5,26,489.2,25,486.7,25"/>
	<path class="st5" d="M486.7,0c-1.8,0-3.6,0.5-5.1,1.5c-1.5,1-2.7,2.4-3.4,4.1c-0.7,1.7-0.9,3.5-0.5,5.3c0.4,1.8,1.2,3.4,2.5,4.7
		c1.3,1.3,2.9,2.1,4.7,2.5c1.8,0.4,3.6,0.2,5.3-0.5c1.7-0.7,3.1-1.9,4.1-3.4c1-1.5,1.5-3.3,1.5-5.1c0-2.4-1-4.7-2.7-6.5
		C491.5,1,489.2,0,486.7,0"/>
</g>
</svg>
